<?xml version="1.0" encoding="UTF-8" standalone="no"?>
<!-- Created with Inkscape (http://www.inkscape.org/) -->

<svg
   xmlns:dc="http://purl.org/dc/elements/1.1/"
   xmlns:cc="http://creativecommons.org/ns#"
   xmlns:rdf="http://www.w3.org/1999/02/22-rdf-syntax-ns#"
   xmlns:svg="http://www.w3.org/2000/svg"
   xmlns="http://www.w3.org/2000/svg"
   xmlns:sodipodi="http://sodipodi.sourceforge.net/DTD/sodipodi-0.dtd"
   xmlns:inkscape="http://www.inkscape.org/namespaces/inkscape"
   width="1000"
   height="129.13211"
   viewBox="0 0 264.58333 34.166205"
   version="1.1"
   id="svg8"
   inkscape:version="0.92.4 (5da689c313, 2019-01-14)"
   sodipodi:docname="a.svg">
  <defs
     id="defs2" />
  <sodipodi:namedview
     id="base"
     pagecolor="#ffffff"
     bordercolor="#666666"
     borderopacity="1.0"
     inkscape:pageopacity="0.0"
     inkscape:pageshadow="2"
     inkscape:zoom="0.35"
     inkscape:cx="1013.352"
     inkscape:cy="-557.34019"
     inkscape:document-units="px"
     inkscape:current-layer="layer1"
     showgrid="false"
     units="px"
     inkscape:window-width="1920"
     inkscape:window-height="1017"
     inkscape:window-x="1912"
     inkscape:window-y="-8"
     inkscape:window-maximized="1"
     fit-margin-top="0"
     fit-margin-left="0"
     fit-margin-right="0"
     fit-margin-bottom="0" />
  <metadata
     id="metadata5">
    <rdf:RDF>
      <cc:Work
         rdf:about="">
        <dc:format>image/svg+xml</dc:format>
        <dc:type
           rdf:resource="http://purl.org/dc/dcmitype/StillImage" />
        <dc:title></dc:title>
      </cc:Work>
    </rdf:RDF>
  </metadata>
  <g
     inkscape:label="Layer 1"
     inkscape:groupmode="layer"
     id="layer1"
     transform="translate(162.28271,32.795804)">
    <g
       id="g39"
       transform="matrix(1.1502223,0,0,-1.1502223,-142.60701,-16.823817)">
      <path
         d="M 0,0 8.01,13.886 H -8.01 Z m 5.434,12.115 c 0.563,0.322 0.925,0.564 1.328,0.805 l 0.04,-0.08 C 6.561,12.518 6.279,12.196 5.957,11.632 L 0.926,2.978 C 0.644,2.495 0.443,2.012 0.322,1.65 l -0.08,0.04 c 0,0.483 0.08,1.047 0.08,1.57 V 9.096 Z M -0.322,9.096 V 3.26 c 0,-0.523 0.08,-1.087 0.08,-1.57 l -0.08,-0.04 c -0.121,0.362 -0.322,0.845 -0.604,1.328 l -5.031,8.654 c -0.322,0.564 -0.604,0.886 -0.845,1.208 l 0.04,0.08 c 0.402,-0.241 0.765,-0.483 1.328,-0.805 z M 3.663,1.368 C 3.099,1.046 2.737,0.805 2.334,0.563 l -0.04,0.081 c 0.242,0.322 0.523,0.644 0.845,1.208 l 5.032,8.653 c 0.281,0.483 0.483,0.966 0.603,1.328 l 0.081,-0.04 c 0,-0.483 -0.081,-1.046 -0.081,-1.57 V 4.387 Z M -8.775,4.387 v 5.836 c 0,0.524 -0.08,1.087 -0.08,1.57 l 0.08,0.04 c 0.121,-0.362 0.323,-0.845 0.604,-1.328 L -3.14,1.852 C -2.818,1.288 -2.536,0.966 -2.294,0.644 L -2.335,0.563 c -0.402,0.242 -0.764,0.483 -1.328,0.805 z m 18.194,0 v 5.836 c 0,0.524 -0.081,1.087 -0.081,1.57 l 0.081,0.04 c 0.12,-0.362 0.321,-0.845 0.603,-1.328 L 15.053,1.852 C 15.376,1.288 15.657,0.966 15.899,0.644 L 15.858,0.563 C 15.456,0.805 15.094,1.046 14.53,1.368 Z M -14.53,1.368 c -0.564,-0.322 -0.926,-0.563 -1.329,-0.805 l -0.04,0.081 c 0.242,0.322 0.523,0.644 0.846,1.208 l 5.031,8.653 c 0.281,0.483 0.483,0.966 0.603,1.328 l 0.081,-0.04 c 0,-0.483 -0.081,-1.046 -0.081,-1.57 V 4.387 Z M 0.322,-11.029 v 5.837 c 0,0.523 -0.08,1.087 -0.08,1.57 l 0.08,0.04 c 0.121,-0.363 0.322,-0.846 0.604,-1.329 l 5.031,-8.653 c 0.322,-0.564 0.604,-0.886 0.845,-1.208 l -0.04,-0.08 c -0.403,0.241 -0.765,0.483 -1.328,0.805 z m -5.756,-3.018 c -0.563,-0.322 -0.926,-0.564 -1.328,-0.805 l -0.04,0.08 c 0.241,0.322 0.523,0.644 0.845,1.208 l 5.031,8.653 c 0.282,0.483 0.483,0.966 0.604,1.329 l 0.08,-0.04 c 0,-0.483 -0.08,-1.047 -0.08,-1.57 v -5.837 z m -3.663,-1.369 8.01,13.886 h -16.019 z m 5.434,12.115 c 0.564,0.322 0.926,0.564 1.328,0.805 l 0.041,-0.08 C -2.536,-2.898 -2.818,-3.22 -3.14,-3.784 l -5.031,-8.653 c -0.281,-0.483 -0.483,-0.966 -0.604,-1.329 l -0.08,0.041 c 0,0.483 0.08,1.046 0.08,1.569 v 5.837 z m -5.756,-3.018 v -5.837 c 0,-0.523 0.081,-1.086 0.081,-1.569 l -0.081,-0.041 c -0.12,0.363 -0.322,0.846 -0.603,1.329 l -5.031,8.653 c -0.323,0.564 -0.604,0.886 -0.846,1.208 l 0.04,0.08 c 0.403,-0.241 0.765,-0.483 1.329,-0.805 z m 18.515,-9.097 8.01,13.886 H 1.087 Z m -0.322,9.097 v -5.837 c 0,-0.523 0.081,-1.086 0.081,-1.569 l -0.081,-0.041 c -0.12,0.363 -0.322,0.846 -0.603,1.329 L 3.139,-3.784 C 2.817,-3.22 2.536,-2.898 2.294,-2.576 l 0.04,0.08 c 0.403,-0.241 0.765,-0.483 1.329,-0.805 z m 5.756,3.018 c 0.564,0.322 0.926,0.564 1.328,0.805 l 0.041,-0.08 C 15.657,-2.898 15.376,-3.22 15.053,-3.784 l -5.031,-8.653 C 9.74,-12.92 9.539,-13.403 9.419,-13.766 l -0.081,0.041 c 0,0.483 0.081,1.046 0.081,1.569 v 5.837 z M 4.79,13.242 c 0.644,0 1.127,0.041 1.61,0.121 v -0.08 C 6.078,13.121 5.554,12.96 5.112,12.679 L 0,9.7 -5.112,12.679 c -0.443,0.281 -0.966,0.442 -1.288,0.604 v 0.08 c 0.483,-0.08 0.966,-0.121 1.61,-0.121 z M -4.307,-2.174 c 0.644,0 1.127,0.041 1.61,0.121 v -0.08 c -0.322,-0.161 -0.845,-0.322 -1.288,-0.604 l -5.112,-2.979 -5.111,2.979 c -0.443,0.282 -0.966,0.443 -1.288,0.604 v 0.08 c 0.483,-0.08 0.966,-0.121 1.61,-0.121 z m 18.193,0 c 0.644,0 1.127,0.041 1.61,0.121 v -0.08 C 15.174,-2.294 14.651,-2.455 14.208,-2.737 L 9.096,-5.716 3.985,-2.737 c -0.443,0.282 -0.966,0.443 -1.288,0.604 v 0.08 c 0.483,-0.08 0.966,-0.121 1.61,-0.121 z m -27.772,2.415 c -0.644,0 -1.127,-0.04 -1.61,-0.12 v 0.08 c 0.322,0.161 0.845,0.322 1.288,0.604 l 5.111,2.978 5.112,-2.978 c 0.443,-0.282 0.966,-0.443 1.288,-0.604 v -0.08 c -0.483,0.08 -0.966,0.12 -1.61,0.12 z m -3.22,-0.643 h 16.019 l -8.01,13.886 z M 4.307,0.241 c -0.644,0 -1.127,-0.04 -1.61,-0.12 v 0.08 c 0.322,0.161 0.845,0.322 1.288,0.604 l 5.111,2.978 5.112,-2.978 c 0.443,-0.282 0.966,-0.443 1.288,-0.604 v -0.08 c -0.483,0.08 -0.966,0.12 -1.61,0.12 z M 1.087,-0.402 H 17.106 L 9.096,13.484 Z M -8.01,-15.818 H 8.01 L 0,-1.932 Z m 3.22,0.644 c -0.644,0 -1.127,-0.041 -1.61,-0.121 v 0.08 c 0.322,0.162 0.845,0.322 1.288,0.604 L 0,-11.632 5.112,-14.611 c 0.442,-0.282 0.966,-0.442 1.288,-0.604 v -0.08 c -0.483,0.08 -0.966,0.121 -1.61,0.121 z m 63.595,9.096 c 0,-0.805 -0.523,-1.409 -1.53,-1.409 -1.046,0 -1.891,0.443 -2.374,1.208 -0.483,0.765 -0.604,0.926 -0.966,0.926 -0.322,0 -0.483,-0.282 -0.483,-0.604 0,-0.242 0.161,-0.845 0.322,-1.972 0.08,-0.564 0.241,-0.765 0.563,-0.765 0.403,0 0.443,0.402 0.886,0.402 0.443,0 0.926,-0.402 2.254,-0.402 1.61,0 3.582,0.966 3.582,3.099 0,3.341 -5.071,3.824 -5.071,5.635 0,0.604 0.483,1.087 1.328,1.087 0.764,0 1.489,-0.322 2.053,-1.047 0.322,-0.402 0.483,-0.805 0.885,-0.805 0.282,0 0.443,0.161 0.443,0.483 0,0.202 -0.081,0.644 -0.322,1.771 -0.161,0.564 -0.242,0.765 -0.564,0.765 -0.161,0 -0.281,-0.08 -0.402,-0.201 -0.081,-0.081 -0.161,-0.201 -0.363,-0.201 -0.241,0 -0.402,0.08 -0.643,0.161 -0.363,0.12 -0.846,0.201 -1.369,0.201 -2.294,0 -3.3,-1.288 -3.3,-2.697 0,-2.938 5.071,-3.542 5.071,-5.635 m 8.533,2.818 c 0,-3.341 2.214,-5.434 5.474,-5.434 3.26,0 5.514,2.093 5.514,5.434 0,3.381 -2.254,5.514 -5.514,5.514 -3.26,0 -5.474,-2.133 -5.474,-5.514 M 27.893,-5.112 c 0,-1.006 -0.08,-1.127 -0.604,-1.207 -0.402,-0.081 -0.563,-0.242 -0.563,-0.523 0,-1.007 2.978,-1.852 5.997,-1.852 4.468,0 6.521,2.335 6.521,5.353 0,2.335 -1.329,4.025 -4.186,4.347 v 0.081 c 2.133,0.402 3.421,1.851 3.421,3.622 0,2.818 -2.214,4.226 -5.675,4.226 -3.18,0 -6.038,-1.126 -6.038,-1.891 0,-0.242 0.121,-0.363 0.523,-0.443 C 27.772,6.52 27.893,6.4 27.893,5.756 Z M 30.55,5.434 c 0,1.65 0.644,2.213 2.254,2.213 2.052,0 2.938,-1.368 2.938,-3.139 0,-2.053 -1.369,-2.858 -2.938,-2.979 L 32.24,1.489 c -0.443,-0.04 -0.724,-0.201 -0.724,-0.644 0,-0.402 0.281,-0.644 0.764,-0.644 h 0.564 c 2.415,0 3.502,-1.69 3.502,-3.823 0,-1.852 -1.087,-3.784 -3.502,-3.784 -2.013,0 -2.294,0.724 -2.294,2.334 z M 41.176,-6.641 c 0,-0.644 -0.242,-0.765 -0.604,-0.805 L 40.21,-7.487 c -0.282,-0.04 -0.403,-0.201 -0.403,-0.442 0,-0.242 0.161,-0.443 0.564,-0.443 h 3.864 c 0.402,0 0.563,0.201 0.563,0.443 0,0.241 -0.121,0.402 -0.402,0.442 l -0.363,0.041 c -0.362,0.04 -0.603,0.161 -0.603,0.805 v 4.387 c 0,1.892 0.603,2.616 1.489,2.616 0.282,0 0.483,-0.08 0.684,-0.201 0.242,-0.161 0.403,-0.282 0.604,-0.282 0.241,0 0.443,0.242 0.684,0.523 0.362,0.443 0.483,0.685 0.483,0.846 0,0.362 -0.684,0.925 -1.57,0.925 -1.167,0 -1.851,-0.644 -2.294,-1.61 H 43.43 V 1.57 c 0,0.523 -0.202,0.684 -0.483,0.684 -0.242,0 -0.524,-0.161 -0.886,-0.322 L 40.33,1.167 C 39.968,1.006 39.888,0.885 39.888,0.684 c 0,-0.201 0.161,-0.362 0.523,-0.362 0.563,0 0.765,-0.161 0.765,-0.886 z m 28.658,3.381 c 0,2.616 1.126,4.306 2.978,4.306 1.932,0 3.019,-1.69 3.019,-4.306 0,-2.576 -1.087,-4.227 -3.019,-4.227 -1.852,0 -2.978,1.651 -2.978,4.227 m -4.629,3.381 c 0,0.563 0.121,0.724 0.644,0.724 h 0.966 c 0.402,0 0.563,0.201 0.563,0.523 0,0.403 -0.201,0.564 -0.603,0.564 h -1.57 v 4.105 c 0,0.282 -0.121,0.443 -0.362,0.443 -0.161,0 -0.323,-0.121 -0.524,-0.201 L 63.273,5.756 C 63.031,5.635 62.951,5.514 62.951,5.192 v -3.26 h -1.006 c -0.403,0 -0.604,-0.161 -0.604,-0.564 0,-0.322 0.161,-0.523 0.563,-0.523 h 0.403 c 0.523,0 0.644,-0.161 0.644,-0.724 v -6.36 c 0,-1.529 0.402,-2.455 2.173,-2.455 1.409,0 2.576,0.724 2.576,1.248 0,0.281 -0.161,0.523 -0.443,0.523 -0.402,0 -0.724,-0.403 -1.328,-0.403 -0.443,0 -0.724,0.282 -0.724,1.127 z M 49.346,-6.641 c 0,-0.644 -0.241,-0.765 -0.603,-0.805 L 48.38,-7.487 c -0.281,-0.04 -0.402,-0.201 -0.402,-0.442 0,-0.242 0.161,-0.443 0.563,-0.443 h 3.864 c 0.403,0 0.564,0.201 0.564,0.443 0,0.241 -0.121,0.402 -0.403,0.442 l -0.362,0.041 C 51.842,-7.406 51.6,-7.285 51.6,-6.641 V 1.57 c 0,0.523 -0.201,0.684 -0.483,0.684 -0.241,0 -0.523,-0.161 -0.885,-0.322 L 48.501,1.167 C 48.139,1.006 48.058,0.885 48.058,0.684 c 0,-0.201 0.161,-0.362 0.524,-0.362 0.563,0 0.764,-0.161 0.764,-0.886 z m 30.872,0 c 0,-0.644 -0.241,-0.765 -0.604,-0.805 l -0.362,-0.041 c -0.282,-0.04 -0.402,-0.201 -0.402,-0.442 0,-0.242 0.161,-0.443 0.563,-0.443 h 3.864 c 0.403,0 0.563,0.201 0.563,0.443 0,0.241 -0.12,0.402 -0.402,0.442 l -0.362,0.041 c -0.362,0.04 -0.604,0.161 -0.604,0.805 V 8.09 c 0,0.523 -0.201,0.685 -0.483,0.685 -0.241,0 -0.523,-0.162 -0.885,-0.323 L 79.373,7.688 C 79.011,7.527 78.93,7.406 78.93,7.205 c 0,-0.202 0.161,-0.363 0.523,-0.363 0.564,0 0.765,-0.161 0.765,-0.885 z M 48.984,6.279 c 0,-0.765 0.644,-1.409 1.409,-1.409 0.765,0 1.409,0.644 1.409,1.409 0,0.765 -0.644,1.409 -1.409,1.409 -0.765,0 -1.409,-0.644 -1.409,-1.409 m 81.989,-12.92 c 0,-0.644 -0.241,-0.765 -0.604,-0.805 l -0.362,-0.041 c -0.282,-0.04 -0.402,-0.201 -0.402,-0.442 0,-0.242 0.161,-0.443 0.563,-0.443 h 3.864 c 0.403,0 0.564,0.201 0.564,0.443 0,0.241 -0.121,0.402 -0.403,0.442 l -0.362,0.041 c -0.362,0.04 -0.604,0.161 -0.604,0.805 v 4.387 c 0,1.892 0.604,2.616 1.489,2.616 0.282,0 0.483,-0.08 0.685,-0.201 0.241,-0.161 0.402,-0.282 0.603,-0.282 0.242,0 0.443,0.242 0.685,0.523 0.362,0.443 0.483,0.685 0.483,0.846 0,0.362 -0.685,0.925 -1.57,0.925 -1.167,0 -1.852,-0.644 -2.294,-1.61 h -0.081 V 1.57 c 0,0.523 -0.201,0.684 -0.483,0.684 -0.241,0 -0.523,-0.161 -0.885,-0.322 l -1.731,-0.765 c -0.362,-0.161 -0.443,-0.282 -0.443,-0.483 0,-0.201 0.161,-0.362 0.523,-0.362 0.564,0 0.765,-0.161 0.765,-0.886 z m 11.552,0.563 c 0,-0.805 -0.523,-1.409 -1.53,-1.409 -1.046,0 -1.891,0.443 -2.374,1.208 -0.483,0.765 -0.604,0.926 -0.966,0.926 -0.322,0 -0.483,-0.282 -0.483,-0.604 0,-0.242 0.161,-0.845 0.322,-1.972 0.08,-0.564 0.241,-0.765 0.563,-0.765 0.403,0 0.443,0.402 0.886,0.402 0.442,0 0.925,-0.402 2.254,-0.402 1.61,0 3.582,0.966 3.582,3.099 0,3.341 -5.072,3.824 -5.072,5.635 0,0.604 0.483,1.087 1.329,1.087 0.764,0 1.489,-0.322 2.052,-1.047 0.322,-0.402 0.483,-0.805 0.886,-0.805 0.282,0 0.443,0.161 0.443,0.483 0,0.202 -0.081,0.644 -0.322,1.771 -0.161,0.564 -0.242,0.765 -0.564,0.765 -0.161,0 -0.282,-0.08 -0.402,-0.201 -0.081,-0.081 -0.161,-0.201 -0.363,-0.201 -0.241,0 -0.402,0.08 -0.644,0.161 -0.362,0.12 -0.845,0.201 -1.368,0.201 -2.294,0 -3.301,-1.288 -3.301,-2.697 0,-2.938 5.072,-3.542 5.072,-5.635 m -14.973,3.784 c 1.087,0.684 1.449,1.046 1.449,1.61 0,0.966 -1.248,2.938 -4.106,2.938 -3.34,0 -5.232,-2.455 -5.232,-5.716 0,-3.26 2.254,-5.232 5.232,-5.232 2.697,0 4.388,1.811 4.388,2.415 0,0.282 -0.202,0.443 -0.443,0.443 -0.282,0 -0.604,-0.282 -1.047,-0.685 -0.684,-0.603 -1.489,-0.925 -2.415,-0.925 -2.133,0 -3.22,1.61 -3.22,4.145 0,2.657 0.926,4.347 2.576,4.347 1.047,0 1.771,-0.845 1.771,-1.73 0,-0.604 -0.08,-0.805 -0.845,-1.248 l -2.053,-1.288 c -0.442,-0.282 -0.603,-0.523 -0.603,-0.845 0,-0.242 0.241,-0.564 0.563,-0.564 0.322,0 0.523,0.121 0.966,0.403 z M 93.178,-6.158 c 0,-0.765 -0.161,-1.087 -0.885,-1.127 -0.523,-0.041 -0.725,-0.202 -0.725,-0.564 0,-0.322 0.202,-0.523 0.725,-0.523 h 3.461 c 0.524,0 0.725,0.201 0.725,0.523 0,0.362 -0.201,0.523 -0.725,0.564 -0.724,0.04 -0.885,0.362 -0.885,1.127 V 4.629 h 0.121 l 4.065,-8.01 c 0.443,-0.886 0.724,-1.087 1.006,-1.087 0.242,0 0.564,0.242 0.966,1.087 l 4.065,8.412 h 0.081 V -6.158 c 0,-0.765 -0.161,-1.087 -0.886,-1.127 -0.483,-0.041 -0.724,-0.202 -0.724,-0.564 0,-0.322 0.241,-0.523 0.724,-0.523 h 4.508 c 0.524,0 0.725,0.201 0.725,0.523 0,0.362 -0.201,0.523 -0.725,0.564 -0.724,0.04 -0.885,0.362 -0.885,1.127 V 6.279 c 0,0.765 0.161,1.087 0.885,1.127 0.524,0.04 0.725,0.201 0.725,0.563 0,0.322 -0.201,0.524 -0.725,0.524 h -2.535 c -0.886,0 -0.966,-0.121 -1.208,-0.604 l -4.427,-8.976 -4.79,8.896 c -0.322,0.603 -0.403,0.684 -1.167,0.684 h -2.375 c -0.523,0 -0.725,-0.202 -0.725,-0.524 0,-0.362 0.202,-0.523 0.725,-0.563 0.724,-0.04 0.885,-0.362 0.885,-1.127 z m 19.964,5.554 c -0.201,0.443 -0.402,0.886 -0.402,1.167 0,0.322 0.241,0.483 0.563,0.524 0.403,0.04 0.524,0.201 0.524,0.402 0,0.242 -0.242,0.363 -0.644,0.363 h -3.623 c -0.402,0 -0.604,-0.081 -0.604,-0.403 0,-0.161 0.081,-0.322 0.363,-0.362 0.563,-0.081 0.925,-0.403 1.368,-1.369 l 3.502,-7.768 c -0.845,-1.529 -2.013,-3.381 -2.697,-4.387 -0.161,-0.242 -0.362,-0.443 -0.362,-0.644 0,-0.202 0.161,-0.202 0.362,-0.202 h 1.328 c 0.322,0 0.564,0.041 0.725,0.443 0.201,0.564 0.724,1.852 1.811,4.508 l 3.301,8.211 c 0.322,0.765 0.442,0.966 0.966,1.127 0.402,0.121 0.603,0.242 0.603,0.483 0,0.282 -0.161,0.363 -0.442,0.363 h -3.019 c -0.403,0 -0.564,-0.081 -0.564,-0.403 0,-0.201 0.161,-0.362 0.524,-0.403 0.442,-0.04 0.764,-0.201 0.764,-0.563 0,-0.282 -0.04,-0.523 -0.241,-1.006 l -1.972,-4.951 z M 90.321,-3.985 c 0.442,0 0.563,0.121 0.563,0.483 v 0.684 c 0,0.363 -0.121,0.483 -0.563,0.483 H 85.37 c -0.443,0 -0.564,-0.12 -0.564,-0.483 v -0.684 c 0,-0.362 0.121,-0.483 0.564,-0.483 z M 194.648,8.09 c 0,0.523 -0.201,0.685 -0.483,0.685 -0.241,0 -0.523,-0.162 -0.885,-0.323 l -1.731,-0.764 c -0.362,-0.161 -0.443,-0.282 -0.443,-0.483 0,-0.202 0.161,-0.363 0.524,-0.363 0.563,0 0.764,-0.161 0.764,-0.885 V -5.997 c 0,-0.564 -0.161,-0.685 -0.644,-0.725 -0.362,-0.04 -0.523,-0.201 -0.523,-0.483 0,-0.845 2.898,-1.489 5.031,-1.489 3.542,0 5.434,2.254 5.434,5.796 0,2.455 -0.926,5.152 -4.146,5.152 -1.247,0 -2.415,-0.564 -2.415,-1.087 0,-0.201 0.161,-0.402 0.403,-0.402 0.402,0 0.644,0.362 1.489,0.362 1.328,0 2.174,-1.409 2.174,-3.945 0,-3.22 -0.966,-4.588 -2.697,-4.588 -1.248,0 -1.852,0.443 -1.852,2.012 z M 184.385,-8.372 c 0.402,0 0.563,0.201 0.563,0.443 0,0.241 -0.121,0.402 -0.402,0.442 l -0.363,0.041 c -0.362,0.04 -0.603,0.161 -0.603,0.805 V 1.57 c 0,0.523 -0.202,0.684 -0.483,0.684 -0.242,0 -0.524,-0.161 -0.886,-0.322 L 180.48,1.167 c -0.362,-0.161 -0.442,-0.282 -0.442,-0.483 0,-0.201 0.161,-0.362 0.523,-0.362 0.563,0 0.765,-0.161 0.765,-0.886 v -3.944 c 0,-1.972 -0.846,-2.697 -2.134,-2.697 -1.167,0 -1.811,0.403 -1.811,2.415 v 6.36 c 0,0.523 -0.201,0.684 -0.483,0.684 -0.241,0 -0.523,-0.161 -0.885,-0.322 l -1.731,-0.765 c -0.362,-0.161 -0.443,-0.282 -0.443,-0.483 0,-0.201 0.161,-0.362 0.523,-0.362 0.564,0 0.765,-0.161 0.765,-0.886 v -4.789 c 0,-2.335 1.167,-3.22 3.26,-3.22 1.409,0 2.617,0.523 3.059,1.167 l 0.081,-0.04 V -8.05 c 0,-0.201 0.121,-0.322 0.443,-0.322 z m 2.495,1.731 c 0,-0.644 -0.241,-0.765 -0.604,-0.805 l -0.362,-0.041 c -0.282,-0.04 -0.402,-0.201 -0.402,-0.442 0,-0.242 0.161,-0.443 0.563,-0.443 h 3.864 c 0.403,0 0.564,0.201 0.564,0.443 0,0.241 -0.121,0.402 -0.403,0.442 l -0.362,0.041 c -0.362,0.04 -0.604,0.161 -0.604,0.805 V 1.57 c 0,0.523 -0.201,0.684 -0.483,0.684 -0.241,0 -0.523,-0.161 -0.885,-0.322 l -1.731,-0.765 c -0.362,-0.161 -0.443,-0.282 -0.443,-0.483 0,-0.201 0.161,-0.362 0.523,-0.362 0.564,0 0.765,-0.161 0.765,-0.886 z m -16.462,-4.911 c 0,-0.644 -0.242,-0.764 -0.604,-0.805 l -0.362,-0.04 c -0.282,-0.04 -0.403,-0.201 -0.403,-0.443 0,-0.241 0.161,-0.443 0.564,-0.443 h 3.864 c 0.402,0 0.563,0.202 0.563,0.443 0,0.242 -0.12,0.403 -0.402,0.443 l -0.362,0.04 c -0.363,0.041 -0.604,0.161 -0.604,0.805 V 0.885 c 0,0.886 0.201,1.127 0.201,1.45 0,0.281 -0.161,0.482 -0.483,0.482 -0.523,0 -0.845,-0.523 -1.248,-1.247 -0.644,0.362 -1.529,0.684 -2.857,0.684 -3.542,0 -5.112,-2.415 -5.112,-5.756 0,-3.381 1.932,-5.192 4.387,-5.192 1.047,0 2.335,0.443 2.335,1.167 0,0.282 -0.242,0.443 -0.483,0.443 -0.363,0 -0.483,-0.322 -1.369,-0.322 -1.61,0 -2.375,1.167 -2.375,3.904 0,2.576 0.805,4.468 2.697,4.468 1.449,0 2.053,-0.684 2.053,-2.334 z m -10.787,7.124 c 0,-1.569 -1.006,-2.817 -2.938,-2.817 -1.449,0 -2.657,0.724 -3.422,1.65 -0.684,0.805 -0.644,1.167 -1.288,1.167 -0.402,0 -0.603,-0.322 -0.603,-0.644 0,-0.281 0.12,-0.885 0.603,-2.737 0.202,-0.764 0.322,-1.006 0.725,-1.006 0.644,0 0.563,0.644 1.167,0.644 0.644,0 1.127,-0.523 3.14,-0.523 3.582,0 5.272,2.133 5.272,4.669 0,2.254 -1.247,3.743 -4.347,5.877 -2.978,2.052 -3.3,2.455 -3.3,3.622 0,1.167 0.926,1.932 2.375,1.932 1.086,0 2.173,-0.483 2.898,-1.248 0.603,-0.644 0.764,-1.328 1.328,-1.328 0.362,0 0.563,0.161 0.563,0.523 0,0.362 -0.241,1.127 -0.563,2.777 -0.121,0.604 -0.242,0.846 -0.644,0.846 -0.483,0 -0.644,-0.483 -1.208,-0.483 -0.483,0 -1.247,0.362 -2.576,0.362 -3.059,0 -4.83,-1.409 -4.83,-3.783 0,-2.134 1.007,-3.1 3.542,-4.871 2.375,-1.65 4.106,-2.656 4.106,-4.629 M 205.878,8.09 c 0,0.523 -0.201,0.685 -0.483,0.685 -0.241,0 -0.523,-0.162 -0.885,-0.323 l -1.731,-0.764 c -0.362,-0.161 -0.443,-0.282 -0.443,-0.483 0,-0.202 0.161,-0.363 0.523,-0.363 0.564,0 0.765,-0.161 0.765,-0.885 V -5.997 c 0,-0.564 -0.161,-0.685 -0.644,-0.725 -0.362,-0.04 -0.523,-0.201 -0.523,-0.483 0,-0.845 2.898,-1.489 5.031,-1.489 3.542,0 5.434,2.254 5.434,5.796 0,2.455 -0.926,5.152 -4.146,5.152 -1.248,0 -2.415,-0.564 -2.415,-1.087 0,-0.201 0.161,-0.402 0.403,-0.402 0.402,0 0.644,0.362 1.489,0.362 1.328,0 2.173,-1.409 2.173,-3.945 0,-3.22 -0.966,-4.588 -2.696,-4.588 -1.248,0 -1.852,0.443 -1.852,2.012 z m -19.36,-1.811 c 0,-0.765 0.644,-1.409 1.409,-1.409 0.764,0 1.408,0.644 1.408,1.409 0,0.765 -0.644,1.409 -1.408,1.409 -0.765,0 -1.409,-0.644 -1.409,-1.409"
         style="fill:#115fa2;fill-opacity:1;fill-rule:nonzero;stroke:none"
         id="path41"
         inkscape:connector-curvature="0" />
    </g>
  </g>
</svg>
